<svg width="30" height="30" viewBox="0 0 30 30" xmlns="http://www.w3.org/2000/svg"><title>icon_questions</title><path d="M0 1.992C0 .892.898 0 1.992 0h26.016C29.108 0 30 .898 30 1.992v26.016c0 1.1-.898 1.992-1.992 1.992H1.992C.892 30 0 29.102 0 28.008V1.992zm15.017 2.02c-1.354 0-2.662.257-3.887.764-1.204.497-2.274 1.213-3.183 2.126-.834.81-1.508 1.754-2.002 2.803-.48 1.018-.777 2.105-.882 3.23-.104 1.123-.015 2.244.266 3.333.288 1.12.77 2.168 1.434 3.118.545.79 1.2 1.492 1.948 2.087.677.54 1.432.99 2.247 1.345l2.556 2.55.004.004.004.004c.202.2.44.352.71.456.25.097.513.146.783.146s.534-.05.784-.146c.27-.104.508-.257.71-.456l.004-.004.003-.003 2.562-2.556c1.724-.766 3.17-1.947 4.19-3.428.663-.95 1.144-2 1.43-3.122.277-1.087.362-2.208.255-3.332-.108-1.122-.405-2.207-.882-3.225-.49-1.047-1.16-1.99-1.983-2.802-.91-.915-1.98-1.63-3.186-2.13-1.226-.506-2.534-.763-3.887-.763zm0 1.335c2.377 0 4.55.926 6.106 2.496 2.91 2.86 3.36 7.45 1.024 10.79-.942 1.37-2.295 2.417-3.852 3.06l-2.745 2.74c-.144.14-.34.21-.533.21-.195 0-.39-.07-.533-.21l-2.745-2.74c-1.6-.643-2.91-1.69-3.854-3.06-2.336-3.34-1.926-7.93 1.025-10.79 1.558-1.57 3.73-2.496 6.107-2.496zm.048 15.277c.495 0 .897-.394.897-.88 0-.488-.402-.882-.897-.882s-.897.394-.897.88c0 .488.402.882.897.882zm3.918-8.765c.094-.743-.047-1.578-.425-2.32-.19-.325-.425-.65-.708-.928-.803-.788-1.794-1.113-2.738-1.113-.566 0-1.085.092-1.557.324-.473.185-.945.51-1.322.835-.66.694-1.133 1.622-1.133 2.735 0 .51.378.88.897.88.52 0 .897-.37.897-.834 0-.602.236-1.065.613-1.436.19-.232.472-.37.708-.464.284-.093.567-.186.85-.186.52 0 1.04.186 1.463.603.19.186.284.37.425.557.19.37.283.788.236 1.206-.048.37-.237.788-.567 1.066-.142.14-.33.28-.52.37-.472.233-.944.512-1.32 1.022-.38.51-.662 1.206-.662 2.272 0 .51.38.88.898.88.52 0 .944-.416.944-.926 0-.603.094-.974.283-1.206.19-.232.472-.37.755-.51.33-.186.66-.418.897-.696.614-.603.944-1.345 1.086-2.133z" fill="#9CADC9" fill-rule="evenodd"/></svg>