<?xml version="1.0" encoding="UTF-8"?>
<svg width="30px" height="30px" viewBox="0 0 30 30" version="1.1" xmlns="http://www.w3.org/2000/svg" xmlns:xlink="http://www.w3.org/1999/xlink">
    <!-- Generator: Sketch 43.2 (39069) - http://www.bohemiancoding.com/sketch -->
    <title>icon_questions</title>
    <desc>Created with Sketch.</desc>
    <defs></defs>
    <g id="搜索页" stroke="none" stroke-width="1" fill="none" fill-rule="evenodd">
        <g id="搜索_标签" transform="translate(-230.000000, -109.000000)" fill="#9CADC9">
            <g id="右侧导航" transform="translate(220.000000, 104.000000)">
                <g id="Group">
                    <path d="M10,6.99161703 C10,5.89167732 10.8978404,5 11.991617,5 L38.008383,5 C39.1083227,5 40,5.89784041 40,6.99161703 L40,33.008383 C40,34.1083227 39.1021596,35 38.008383,35 L11.991617,35 C10.8916773,35 10,34.1021596 10,33.008383 L10,6.99161703 Z M25.0168207,9.0120412 C23.6632979,9.0120412 22.3554451,9.26901672 21.1295807,9.77584873 C19.9262455,10.2733592 18.8555954,10.9887794 17.9473145,11.9022428 C17.1126218,12.7131473 16.4389398,13.6558655 15.9447674,14.7045019 C15.4648825,15.7228155 15.1683112,16.8099392 15.0633632,17.9356171 C14.958687,19.0581136 15.0481475,20.1793865 15.3292993,21.2682678 C15.6182627,22.387494 16.100978,23.4363973 16.7639501,24.3858564 C17.3085926,25.1760934 17.9639568,25.8784324 18.7117703,26.4732514 C19.3893015,27.0121636 20.1440889,27.4638452 20.9587657,27.8183073 L23.5164387,30.3688411 L23.5200163,30.3724006 L23.5236164,30.3759379 C23.7260403,30.5748042 23.9646921,30.7283532 24.2329377,30.8322914 C24.4827976,30.9291105 24.74656,30.9781875 25.016866,30.9781875 C25.2871721,30.9781875 25.5509118,30.9291105 25.8007717,30.8322914 C26.0689946,30.7283977 26.3076238,30.5748932 26.5100703,30.3760269 L26.5137157,30.3724674 L26.5173159,30.3688411 L29.0791551,27.8141916 C30.8039921,27.0482261 32.2489452,25.8671309 33.2701895,24.3855227 C33.9330031,23.4361526 34.4139522,22.3860702 34.6997457,21.2641966 C34.976686,20.1771396 35.0624784,19.0560891 34.9546549,17.9321911 C34.8470351,16.810095 34.5502826,15.7248623 34.0726619,14.7066599 C33.5815237,13.6596253 32.9143401,12.7171963 32.0896327,11.9054686 C31.1806046,10.9904035 30.1089129,10.2739821 28.904106,9.77584875 C27.6781964,9.26901675 26.3703208,9.0120412 25.0168207,9.0120412 Z M25.0168207,10.3468634 C27.3936029,10.3468634 29.5656064,11.2729186 31.1227984,12.843248 C34.032381,15.7019478 34.483125,20.29209 32.1474163,23.633951 C31.2048095,25.0029224 29.8524641,26.0498235 28.2952495,26.694031 L25.5495985,29.4320184 C25.4061357,29.5729089 25.2114782,29.6433652 25.016866,29.6433652 C24.8222538,29.6433652 24.6275963,29.5729089 24.4841788,29.4320184 L21.7385052,26.694031 C20.1402397,26.0498235 18.8289225,25.0029224 17.8864289,23.633951 C15.5504938,20.29209 15.9603002,15.7019701 18.910911,12.843248 C20.4680803,11.2729186 22.6400159,10.3468634 25.0168207,10.3468634 Z M25.0650266,25.6243045 C25.5603763,25.6243045 25.9619409,25.2297087 25.9619182,24.7430771 C25.9619182,24.2563786 25.5603763,23.8619609 25.0650266,23.8619609 C24.5696995,23.8619609 24.1681575,24.2563786 24.1681575,24.7430771 C24.1681575,25.2297087 24.5697221,25.6243045 25.0650266,25.6243045 Z M28.9828793,16.858816 C29.0772758,16.1166548 28.9356697,15.2818348 28.5579703,14.5398961 C28.3691998,14.2151561 28.1332424,13.8905051 27.8499622,13.6122836 C27.0474897,12.8238487 26.0562468,12.4992199 25.1121908,12.4992199 C24.5458342,12.4992199 24.026574,12.591901 23.5545007,12.8238487 C23.0824727,13.0094112 22.6104221,13.3340622 22.2327907,13.658691 C21.5719696,14.3543336 21.0999416,15.2819461 21.0999416,16.3950098 C21.0999416,16.9052234 21.4775504,17.2761037 21.9968333,17.2761037 C22.5160935,17.2761037 22.8936797,16.9050899 22.8936797,16.4413949 C22.8936797,15.8384112 23.1296597,15.374605 23.5072912,15.0035911 C23.6961522,14.7717325 23.9793418,14.632555 24.2152992,14.5398739 C24.498602,14.4471037 24.7817916,14.3543113 25.0649813,14.3543113 C25.5842415,14.3543113 26.1035017,14.5398739 26.5283654,14.9571838 C26.7170679,15.1427463 26.8115324,15.3282421 26.9531838,15.5137824 C27.1419316,15.8848185 27.2363734,16.3022174 27.1891865,16.7196386 C27.1419316,17.0906746 26.9531838,17.5080735 26.6227846,17.7863173 C26.4811332,17.9254947 26.2922269,18.0646499 26.1035017,18.1573533 C25.6314284,18.3892119 25.1594004,18.6675224 24.7817916,19.1777359 C24.4041602,19.687816 24.1209706,20.3835921 24.1209706,21.4502486 C24.1209706,21.9604399 24.4985794,22.3314982 25.017817,22.3314982 C25.5371225,22.3314982 25.9619409,21.9140993 25.9619409,21.4038635 C25.9619409,20.8010133 26.0562242,20.4299772 26.2451305,20.1980518 C26.4339009,19.9661709 26.7171585,19.8269935 27.0003481,19.687816 C27.3307473,19.5023647 27.6611465,19.2704171 27.8972624,18.9921511 C28.510806,18.3892119 28.8412278,17.647251 28.9828793,16.858816 Z" id="icon_questions"></path>
                </g>
            </g>
        </g>
    </g>
</svg>