<?xml version="1.0" encoding="UTF-8"?>
<svg width="30px" height="30px" viewBox="0 0 30 30" version="1.1" xmlns="http://www.w3.org/2000/svg" xmlns:xlink="http://www.w3.org/1999/xlink">
    <!-- Generator: Sketch 43.2 (39069) - http://www.bohemiancoding.com/sketch -->
    <title>Combined Shape</title>
    <desc>Created with Sketch.</desc>
    <defs></defs>
    <g id="搜索页" stroke="none" stroke-width="1" fill="none" fill-rule="evenodd">
        <g id="搜索_标签" transform="translate(-230.000000, -209.000000)" fill="#9CADC9">
            <g id="右侧导航" transform="translate(220.000000, 104.000000)">
                <g id="Group-2-Copy" transform="translate(0.000000, 100.000000)">
                    <path d="M10,6.99161703 C10,5.89167732 10.8978404,5 11.991617,5 L38.008383,5 C39.1083227,5 40,5.89784041 40,6.99161703 L40,33.008383 C40,34.1083227 39.1021596,35 38.008383,35 L11.991617,35 C10.8916773,35 10,34.1021596 10,33.008383 L10,6.99161703 Z M33.5200145,19.9877753 L24.8913568,11.3029587 C24.7566393,11.1952401 24.60845,11.1077187 24.446789,11.0403945 C24.4063737,11.0269297 24.339015,11.016831 24.2447127,11.0100986 C24.1504104,11.0033662 24.0897875,11 24.062844,11 L17.3943264,11 C17.2461371,11 17.0844761,11.0269297 16.9093433,11.080789 C16.7342105,11.1346483 16.5792854,11.2356346 16.4445678,11.3837477 C16.2963786,11.5318609 16.2054442,11.6867064 16.1717648,11.8482844 C16.1380855,12.0098624 16.107774,12.1781728 16.0808305,12.3532156 C16.0808305,12.3666804 16.0740946,12.3734129 16.0606229,12.3734129 C16.0471511,13.5313884 16.0336794,14.5816453 16.0202076,15.5241835 C16.0202076,15.9281285 16.0168397,16.3253411 16.0101038,16.7158212 C16.0033679,17.1063013 16,17.4563869 16,17.7660781 L16,18.573968 L16,18.977913 C16,19.1798854 16.0505191,19.351562 16.1515572,19.4929428 C16.2525954,19.6343235 16.3233221,19.7319435 16.3637373,19.7858029 C16.3772091,19.8127325 16.5152945,19.9574795 16.7779937,20.2200437 C17.0406929,20.4826079 17.3774867,20.8225949 17.7883752,21.2400047 C18.1992636,21.6574145 18.667407,22.1286836 19.1928054,22.6538121 L20.8094157,24.2695919 C22.0892323,25.5622158 23.5441816,27.0231501 25.1742636,28.6523947 C25.3763399,28.8543672 25.6592467,28.9688183 26.0229841,28.9957479 C26.3867214,29.0226776 26.7100435,28.9216914 26.9929503,28.6927892 L33.5402221,22.1084864 C34.1599227,21.42178 34.1531869,20.7148763 33.5200145,19.9877753 Z M19.0715596,15.3424083 C18.7078223,15.3424083 18.397972,15.2111262 18.1420087,14.948562 C17.8860454,14.6859978 17.7580637,14.3729404 17.7580637,14.0093899 C17.7580637,13.6458395 17.8860454,13.3361483 18.1420087,13.0803165 C18.397972,12.8244847 18.7078223,12.6965688 19.0715596,12.6965688 C19.435297,12.6965688 19.7451473,12.8244847 20.0011106,13.0803165 C20.2570739,13.3361483 20.3850555,13.6458395 20.3850555,14.0093899 C20.3850555,14.3729404 20.2570739,14.6859978 20.0011106,14.948562 C19.7451473,15.2111262 19.435297,15.3424083 19.0715596,15.3424083 Z" id="Combined-Shape"></path>
                </g>
            </g>
        </g>
    </g>
</svg>