<svg width="30" height="30" viewBox="0 0 30 30" xmlns="http://www.w3.org/2000/svg"><title>Combined Shape</title><path d="M0 1.992C0 .892.898 0 1.992 0h26.016C29.108 0 30 .898 30 1.992v26.016c0 1.1-.898 1.992-1.992 1.992H1.992C.892 30 0 29.102 0 28.008V1.992zm23.52 12.996l-8.63-8.685c-.133-.108-.282-.195-.443-.263-.04-.013-.108-.023-.202-.03-.095-.007-.155-.01-.182-.01h-6.67c-.147 0-.31.027-.484.08-.176.055-.33.156-.465.304-.15.148-.24.303-.273.464-.034.162-.064.33-.09.505 0 .014-.008.02-.02.02-.015 1.158-.028 2.21-.042 3.15 0 .405-.003.802-.01 1.193-.007.39-.01.74-.01 1.05V13.978c0 .202.05.374.152.515.1.14.17.24.212.293.013.027.15.17.414.434.263.263.6.603 1.01 1.02.41.417.88.89 1.405 1.414l1.616 1.616c1.28 1.292 2.734 2.753 4.364 4.382.202.202.485.317.85.344.363.027.686-.074.97-.303l6.546-6.585c.62-.686.613-1.393-.02-2.12zM9.072 10.342c-.364 0-.674-.13-.93-.393-.256-.264-.384-.577-.384-.94 0-.364.128-.674.384-.93s.566-.383.93-.383c.363 0 .673.127.93.383.255.256.383.566.383.93 0 .363-.128.676-.384.94-.255.26-.565.392-.928.392z" fill="#9CADC9" fill-rule="evenodd"/></svg>