<?xml version="1.0" encoding="UTF-8"?>
<svg width="30px" height="30px" viewBox="0 0 30 30" version="1.1" xmlns="http://www.w3.org/2000/svg" xmlns:xlink="http://www.w3.org/1999/xlink">
    <!-- Generator: Sketch 43.2 (39069) - http://www.bohemiancoding.com/sketch -->
    <title>Combined Shape</title>
    <desc>Created with Sketch.</desc>
    <defs></defs>
    <g id="搜索页" stroke="none" stroke-width="1" fill="none" fill-rule="evenodd">
        <g id="搜索_标签" transform="translate(-230.000000, -159.000000)" fill="#9CADC9">
            <g id="右侧导航" transform="translate(220.000000, 104.000000)">
                <g id="Group-2" transform="translate(0.000000, 50.000000)">
                    <path d="M10,6.99161703 C10,5.89167732 10.8978404,5 11.991617,5 L38.008383,5 C39.1083227,5 40,5.89784041 40,6.99161703 L40,33.008383 C40,34.1083227 39.1021596,35 38.008383,35 L11.991617,35 C10.8916773,35 10,34.1021596 10,33.008383 L10,6.99161703 Z M27.9236396,23.2386463 C27.7930152,23.1983826 26.9685592,22.8461612 27.4837205,21.3620529 L27.4765776,21.3620529 C28.8194045,20.051826 29.8457696,17.942179 29.8457696,15.8659592 C29.8457696,12.67308 27.6047405,11 25.0008446,11 C22.3952595,11 20.1671167,12.67308 20.1671167,15.8659592 C20.1671167,17.9505701 21.187835,20.0685397 22.5386977,21.3757256 C23.0650802,22.6844664 22.1236101,23.1703055 21.9265515,23.2386462 C19.1992224,24.1731018 16,25.8765911 16,27.5580622 L16,28.1881738 C16,30.4791788 20.6878283,31 25.0264241,31 C29.3713906,31 34,30.4791788 34,28.1881738 L34,27.5580622 C34,25.8257413 30.7847542,24.1359476 27.9236396,23.2386463 Z" id="Combined-Shape"></path>
                </g>
            </g>
        </g>
    </g>
</svg>