<svg width="30" height="30" viewBox="0 0 30 30" xmlns="http://www.w3.org/2000/svg"><title>Combined Shape</title><path d="M0 1.992C0 .892.898 0 1.992 0h26.016C29.108 0 30 .898 30 1.992v26.016c0 1.1-.898 1.992-1.992 1.992H1.992C.892 30 0 29.102 0 28.008V1.992zM17.924 18.24c-.13-.042-.955-.394-.44-1.878h-.007c1.342-1.31 2.37-3.42 2.37-5.496C19.846 7.673 17.604 6 15 6c-2.605 0-4.833 1.673-4.833 4.866 0 2.085 1.02 4.203 2.372 5.51.525 1.308-.416 1.794-.613 1.863C9.2 19.172 6 20.876 6 22.557v.63C6 25.478 10.688 26 15.026 26 19.37 26 24 25.48 24 23.188v-.63c0-1.732-3.215-3.422-6.076-4.32z" fill="#9CADC9" fill-rule="evenodd"/></svg>