<?xml version="1.0" encoding="UTF-8"?>
<svg width="16px" height="16px" viewBox="0 0 16 16" version="1.1" xmlns="http://www.w3.org/2000/svg" xmlns:xlink="http://www.w3.org/1999/xlink">
    <!-- Generator: Sketch 43.2 (39069) - http://www.bohemiancoding.com/sketch -->
    <title>Combined Shape</title>
    <desc>Created with Sketch.</desc>
    <defs></defs>
    <g id="首頁" stroke="none" stroke-width="1" fill="none" fill-rule="evenodd">
        <g id="home_未登录_弹层" transform="translate(-894.000000, -622.000000)" fill="#999999">
            <g id="弹层">
                <g id="登陆" transform="translate(520.000000, 613.000000)">
                    <path d="M384.142136,15.1421356 L384.142136,9.13293076 C384.142136,8.040348 383.246705,7.14213562 382.142136,7.14213562 C381.029865,7.14213562 380.142136,8.03344497 380.142136,9.13293076 L380.142136,15.1421356 L374.132931,15.1421356 C373.040348,15.1421356 372.142136,16.0375661 372.142136,17.1421356 C372.142136,18.254406 373.033445,19.1421356 374.132931,19.1421356 L380.142136,19.1421356 L380.142136,25.1513405 C380.142136,26.2439232 381.037566,27.1421356 382.142136,27.1421356 C383.254406,27.1421356 384.142136,26.2508263 384.142136,25.1513405 L384.142136,19.1421356 L390.15134,19.1421356 C391.243923,19.1421356 392.142136,18.2467051 392.142136,17.1421356 C392.142136,16.0298653 391.250826,15.1421356 390.15134,15.1421356 L384.142136,15.1421356 Z" id="Combined-Shape" transform="translate(382.142136, 17.142136) rotate(45.000000) translate(-382.142136, -17.142136) "></path>
                </g>
            </g>
        </g>
    </g>
</svg>