<svg width="60" height="60" viewBox="0 0 60 60" xmlns="http://www.w3.org/2000/svg"><title>icon_git</title><path d="M59.997 30.752c0 6.7-1.907 12.726-5.723 18.078-3.815 5.352-8.744 9.056-14.786 11.11-.703.134-1.217.04-1.542-.278-.325-.32-.488-.72-.488-1.202v-8.448c0-2.59-.677-4.486-2.03-5.686 1.485-.16 2.82-.4 4.005-.72 1.185-.32 2.41-.84 3.673-1.56 1.263-.722 2.32-1.61 3.165-2.663.848-1.055 1.538-2.456 2.07-4.206.535-1.75.8-3.758.8-6.026 0-3.23-1.027-5.98-3.084-8.248.964-2.43.86-5.15-.312-8.166-.73-.24-1.785-.094-3.165.44-1.382.535-2.58 1.123-3.594 1.763l-1.485.96c-2.42-.693-4.92-1.04-7.5-1.04s-5.08.347-7.5 1.04c-.417-.294-.97-.654-1.66-1.08-.69-.428-1.778-.943-3.264-1.544-1.485-.6-2.605-.78-3.36-.54-1.147 3.016-1.237 5.738-.272 8.166-2.057 2.27-3.086 5.018-3.086 8.25 0 2.267.267 4.27.8 6.005.534 1.736 1.217 3.137 2.05 4.205.834 1.068 1.883 1.962 3.146 2.683 1.263.72 2.488 1.24 3.673 1.56 1.185.32 2.52.56 4.005.72-1.042.96-1.68 2.335-1.915 4.123-.547.267-1.133.467-1.758.6-.626.133-1.368.2-2.228.2-.86 0-1.713-.287-2.558-.86-.845-.575-1.568-1.41-2.168-2.505-.495-.854-1.127-1.547-1.895-2.08-.767-.533-1.412-.854-1.932-.96l-.782-.122c-.547 0-.924.06-1.133.18-.208.12-.273.274-.195.462.078.188.196.375.353.56.157.187.327.347.508.48l.273.2c.574.267 1.14.774 1.7 1.522.56.75.97 1.43 1.23 2.043l.39.92c.34 1.014.913 1.835 1.72 2.462.81.626 1.682 1.027 2.62 1.2.936.175 1.84.268 2.714.28.874.012 1.596-.035 2.168-.14l.897-.162c0 1.014.006 2.203.02 3.564l.02 2.163c0 .48-.17.88-.508 1.202-.34.32-.86.414-1.563.28-6.043-2.056-10.972-5.76-14.787-11.112C1.908 43.473 0 37.447 0 30.747c0-5.58 1.34-10.724 4.023-15.434 2.682-4.71 6.32-8.44 10.918-11.19C19.54 1.373 24.56-.002 30 0c5.442.002 10.462 1.376 15.06 4.123 4.596 2.747 8.235 6.477 10.917 11.19C58.66 20.026 60 25.17 60 30.747l-.003.005z" fill-rule="nonzero" fill="#24292E"/></svg>