<?xml version="1.0" encoding="UTF-8"?>
<svg width="60px" height="60px" viewBox="0 0 60 60" version="1.1" xmlns="http://www.w3.org/2000/svg" xmlns:xlink="http://www.w3.org/1999/xlink">
    <!-- Generator: Sketch 43.2 (39069) - http://www.bohemiancoding.com/sketch -->
    <title>icon_git</title>
    <desc>Created with Sketch.</desc>
    <defs></defs>
    <g id="首頁" stroke="none" stroke-width="1" fill="none" fill-rule="evenodd">
        <g id="home_未登录_弹层" transform="translate(-690.000000, -707.000000)" fill-rule="nonzero" fill="#24292E">
            <g id="弹层">
                <g id="登陆" transform="translate(520.000000, 613.000000)">
                    <path d="M229.99747,124.752179 C229.99747,131.452152 228.089809,137.478195 224.274486,142.830307 C220.459163,148.18242 215.530422,151.886036 209.488264,153.941156 C208.784878,154.074424 208.270658,153.981327 207.945604,153.661867 C207.620551,153.342407 207.458047,152.941809 207.458092,152.460073 L207.458092,144.011641 C207.458092,141.421862 206.781368,139.526495 205.42792,138.325542 C206.91304,138.164948 208.248143,137.924921 209.43323,137.60546 C210.618317,137.286 211.842578,136.765821 213.106012,136.044922 C214.369445,135.324023 215.424525,134.436551 216.27125,133.382506 C217.117975,132.32846 217.808031,130.926788 218.341416,129.177488 C218.874801,127.428188 219.141493,125.41922 219.141493,123.150581 C219.141493,119.920153 218.113076,117.170643 216.056242,114.902051 C217.019644,112.472819 216.915478,109.750635 215.743745,106.7355 C215.013696,106.494609 213.958616,106.641516 212.578506,107.176223 C211.198396,107.71093 210.000798,108.298584 208.985712,108.939186 L207.500615,109.900088 C205.078757,109.206516 202.578552,108.859729 200,108.859729 C197.421448,108.859729 194.921243,109.206516 192.499385,109.900088 C192.082676,109.606273 191.529306,109.245824 190.839274,108.81874 C190.149241,108.391657 189.061643,107.877456 187.576478,107.276139 C186.091313,106.674822 184.971218,106.494585 184.216193,106.73543 C183.069436,109.752293 182.978602,112.474477 183.94369,114.901981 C181.886856,117.170619 180.858439,119.920129 180.858439,123.150511 C180.858439,125.419149 181.125131,127.421275 181.658516,129.156888 C182.191901,130.892501 182.875302,132.294174 183.708719,133.361906 C184.542136,134.429638 185.590561,135.32393 186.853995,136.044782 C188.117429,136.765634 189.341689,137.285814 190.526776,137.60532 C191.711864,137.924827 193.046967,138.164854 194.532086,138.325402 C193.490338,139.285464 192.851944,140.659786 192.616904,142.44837 C192.070211,142.71486 191.484322,142.914738 190.859236,143.048006 C190.234151,143.181274 189.491591,143.247908 188.631557,143.247908 C187.771524,143.247908 186.918942,142.960913 186.073812,142.386921 C185.228681,141.81293 184.50613,140.978429 183.906157,139.883418 C183.411103,139.029251 182.779386,138.335678 182.011007,137.8027 C181.242628,137.269721 180.5984,136.949421 180.078324,136.841797 L179.295748,136.721352 C178.749054,136.721352 178.371519,136.781142 178.163142,136.900724 C177.954765,137.020305 177.88975,137.174056 177.968096,137.361977 C178.046443,137.549897 178.163962,137.736953 178.320655,137.923145 C178.477348,138.109338 178.646529,138.269068 178.828198,138.402336 L179.100702,138.602238 C179.674103,138.868727 180.240828,139.376084 180.800875,140.124309 C181.360922,140.872534 181.770954,141.553284 182.030969,142.16656 L182.420993,143.086473 C182.759355,144.101187 183.332733,144.922026 184.141128,145.548988 C184.949524,146.17595 185.822091,146.576548 186.75883,146.750782 C187.69557,146.925016 188.600656,147.018112 189.47409,147.03007 C190.347523,147.042028 191.070074,146.995059 191.641744,146.889164 L192.53931,146.727729 C192.53931,147.742444 192.545987,148.930575 192.559341,150.292122 C192.572695,151.653669 192.579372,152.374568 192.579372,152.454818 C192.579372,152.934873 192.410191,153.335471 192.071829,153.656612 C191.733467,153.977754 191.212593,154.07085 190.509207,153.935901 C184.467048,151.880827 179.538307,148.177211 175.722984,142.825052 C171.907661,137.472893 170,131.44685 170,124.746924 C170,119.167607 171.340937,114.023034 174.022811,109.313205 C176.704685,104.603376 180.34415,100.873298 184.941206,98.1229703 C189.538262,95.3726429 194.55786,93.9983199 200,94.0000015 C205.44214,94.0016832 210.461738,95.3760061 215.058794,98.1229703 C219.65585,100.869935 223.295315,104.600013 225.977189,109.313205 C228.659063,114.026397 230,119.17097 230,124.746924 L229.99747,124.752179 Z" id="icon_git"></path>
                </g>
            </g>
        </g>
    </g>
</svg>