<?xml version="1.0" encoding="UTF-8"?>
<svg width="18px" height="18px" viewBox="0 0 18 18" version="1.1" xmlns="http://www.w3.org/2000/svg" xmlns:xlink="http://www.w3.org/1999/xlink">
    <!-- Generator: Sketch 43.2 (39069) - http://www.bohemiancoding.com/sketch -->
    <title>icon_git</title>
    <desc>Created with Sketch.</desc>
    <defs></defs>
    <g id="Symbols" stroke="none" stroke-width="1" fill="none" fill-rule="evenodd">
        <g id="btn_登陆_git" transform="translate(-8.000000, -6.000000)" fill-rule="nonzero" fill="#F5FAFA">
            <path d="M25.9992411,15.2256537 C25.9992411,17.2356457 25.4269427,19.0434585 24.2823458,20.6490922 C23.137749,22.2547259 21.6591267,23.3658107 19.8464792,23.9823467 C19.6354633,24.0223271 19.4811973,23.9943982 19.3836812,23.8985602 C19.2861652,23.8027222 19.237414,23.6825428 19.2374276,23.538022 L19.2374276,21.0034924 C19.2374276,20.2265585 19.0344105,19.6579485 18.6283761,19.2976626 C19.0739119,19.2494843 19.4744428,19.1774762 19.829969,19.0816381 C20.1854952,18.9858001 20.5527733,18.8297463 20.9318035,18.6134766 C21.3108336,18.397207 21.6273575,18.1309653 21.8813751,17.8147517 C22.1353926,17.4985381 22.3424092,17.0780363 22.5024247,16.5532464 C22.6624402,16.0284565 22.7424479,15.4257659 22.7424479,14.7451744 C22.7424479,13.7760458 22.4339228,12.9511928 21.8168725,12.2706154 C22.1058931,11.5418456 22.0746434,10.7251905 21.7231234,9.82064996 C21.5041087,9.74838257 21.1875849,9.79245488 20.7735518,9.95286691 C20.3595187,10.1132789 20.0002393,10.2895752 19.6957135,10.4817557 L19.2501846,10.7700265 C18.523627,10.5619547 17.7735655,10.4579188 17,10.4579188 C16.2264345,10.4579188 15.476373,10.5619547 14.7498154,10.7700265 C14.6248029,10.6818819 14.4587918,10.5737471 14.2517821,10.445622 C14.0447723,10.317497 13.7184928,10.1632369 13.2729433,9.98284169 C12.8273939,9.80244648 12.4913655,9.74837556 12.264858,9.82062894 C11.9208309,10.725688 11.8935805,11.5423431 12.183107,12.2705943 C11.5660567,12.9511858 11.2575316,13.7760388 11.2575316,14.7451533 C11.2575316,15.4257448 11.3375393,16.0263825 11.4975548,16.5470665 C11.6575703,17.0677504 11.8625906,17.4882522 12.1126157,17.8085718 C12.3626407,18.1288913 12.6771683,18.3971789 13.0561984,18.6134346 C13.4352286,18.8296902 13.8025067,18.9857441 14.1580329,19.0815961 C14.5135591,19.1774481 14.9140901,19.2494563 15.3596258,19.2976205 C15.0471013,19.5856391 14.8555832,19.9979359 14.7850713,20.5345111 C14.6210633,20.6144579 14.4452965,20.6744215 14.2577708,20.7144019 C14.0702452,20.7543823 13.8474773,20.7743725 13.5894672,20.7743725 C13.3314571,20.7743725 13.0756825,20.6882738 12.8221435,20.5160764 C12.5686044,20.3438791 12.351839,20.0935287 12.1718472,19.7650253 C12.0233308,19.5087753 11.8338157,19.3007035 11.603302,19.1408099 C11.3727884,18.9809164 11.1795201,18.8848262 11.0234971,18.8525392 L10.7887243,18.8164055 C10.6247163,18.8164055 10.5114557,18.8343427 10.4489426,18.8702171 C10.3864295,18.9060916 10.3669249,18.9522169 10.3904289,19.008593 C10.4139328,19.0649691 10.4491887,19.121086 10.4961966,19.1769436 C10.5432045,19.2328013 10.5939588,19.2807203 10.6484595,19.3207007 L10.7302106,19.3806713 C10.902231,19.460618 11.0722483,19.6128252 11.2402625,19.8372927 C11.4082767,20.0617602 11.5312862,20.2659853 11.6092908,20.449968 L11.7262978,20.725942 C11.8278064,21.0303562 11.99982,21.2766077 12.2423385,21.4646963 C12.4848571,21.6527849 12.7466273,21.7729643 13.0276491,21.8252345 C13.308671,21.8775047 13.5801969,21.9054335 13.8422269,21.9090209 C14.1042569,21.9126084 14.3210223,21.8985178 14.4925231,21.8667493 L14.761793,21.8183188 C14.761793,22.1227331 14.7637961,22.4791724 14.7678023,22.8876366 C14.7718085,23.2961008 14.7738116,23.5123704 14.7738116,23.5364455 C14.7738116,23.6804618 14.7230573,23.8006412 14.6215487,23.8969837 C14.5200401,23.9933262 14.3637779,24.021255 14.152762,23.9807702 C12.3401144,23.3642482 10.8614922,22.2531634 9.71689531,20.6475156 C8.57229844,19.0418679 8,17.2340551 8,15.2240772 C8,13.5502821 8.40228112,12.0069101 9.20684335,10.5939615 C10.0114056,9.18101279 11.1032451,8.06198933 12.4823618,7.23689109 C13.8614785,6.41179286 15.3673579,5.99949598 17,6.00000046 C18.6326421,6.00050495 20.1385215,6.41280182 21.5176382,7.23689109 C22.8967549,8.06098036 23.9885944,9.18000382 24.7931566,10.5939615 C25.5977189,12.0079191 26,13.551291 26,15.2240772 L25.9992411,15.2256537 Z" id="icon_git"></path>
        </g>
    </g>
</svg>